<?xml version="1.0" encoding="UTF-8" standalone="no"?><!DOCTYPE svg PUBLIC "-//W3C//DTD SVG 1.1//EN" "http://www.w3.org/Graphics/SVG/1.1/DTD/svg11.dtd"><svg width="100%" height="100%" viewBox="0 0 1182 1182" version="1.1" xmlns="http://www.w3.org/2000/svg" xmlns:xlink="http://www.w3.org/1999/xlink" xml:space="preserve" xmlns:serif="http://www.serif.com/" style="fill-rule:evenodd;clip-rule:evenodd;stroke-linejoin:round;"><path d="M0,1181.1l18.748,0l-0,-18.745l-18.748,-0l0,-37.497l18.748,-0l-0,18.746l18.747,-0l0,-18.746l18.748,-0l-0,37.497l-18.748,-0l0,18.745l37.495,0l0,-18.745l18.748,-0l0,18.745l37.496,0l-0,-18.745l-18.748,-0l-0,-18.751l18.748,-0l-0,-18.746l-37.496,-0l0,18.746l-18.748,-0l0,-56.243l18.748,0l0,18.751l37.496,0l-0,-18.751l-18.748,0l-0,-18.746l18.748,0l-0,-18.745l-37.496,-0l0,18.745l-18.748,0l0,-18.745l-37.495,-0l0,18.745l18.748,0l-0,37.497l-18.748,0l0,-18.751l-18.747,0l-0,18.751l-18.748,0l0,-37.497l18.748,0l-0,-18.745l-18.748,-0l0,-37.497l18.748,-0l-0,18.746l37.495,-0l-0,-18.746l-18.748,-0l0,-18.751l18.748,0l-0,-18.746l-37.495,0l-0,18.746l-18.748,0l0,-37.491l18.748,-0l-0,-18.751l-18.748,-0l0,-37.492l18.748,0l-0,18.746l18.747,-0l0,-18.746l18.748,0l-0,37.492l-18.748,-0l0,18.751l56.243,-0l0,-18.751l-18.748,-0l0,-37.492l18.748,0l0,18.746l18.748,-0l-0,-18.746l18.748,0l-0,37.492l-18.748,-0l-0,18.751l18.748,-0l-0,37.491l-18.748,0l-0,-18.746l-37.496,0l0,18.746l18.748,0l0,18.751l-18.748,-0l0,18.746l37.496,-0l-0,-18.746l18.748,-0l-0,18.746l18.747,-0l0,-18.746l18.748,-0l0,18.746l37.495,-0l0,-18.746l-18.748,-0l-0,-18.751l18.748,0l0,-18.746l-37.495,0l0,18.746l-18.748,0l0,-37.491l18.748,-0l0,-18.751l-18.748,-0l0,-37.492l18.748,0l0,18.746l18.747,-0l-0,-18.746l18.748,0l0,37.492l-18.748,-0l-0,18.751l56.244,-0l0,-18.751l-18.748,-0l0,-37.492l18.748,0l0,18.746l18.748,-0l0,-18.746l18.749,0l-0,37.492l-18.749,-0l0,18.751l18.749,-0l-0,37.491l-18.749,0l0,-18.746l-37.496,0l0,18.746l18.748,0l0,18.751l-18.748,-0l0,18.746l37.496,-0l0,-18.746l18.749,-0l-0,37.497l-18.749,-0l0,18.745l18.749,0l-0,37.497l-18.749,0l0,-18.751l-18.748,0l0,18.751l-18.748,0l0,-37.497l18.748,0l0,-18.745l-37.496,-0l0,18.745l-18.748,0l-0,-18.745l-37.495,-0l0,18.745l18.748,0l0,18.746l-18.748,0l0,18.751l37.495,0l-0,-18.751l18.748,0l0,56.243l-18.748,-0l-0,-18.746l-37.495,-0l0,18.746l18.748,-0l0,18.751l-18.748,-0l0,18.745l37.495,0l-0,-18.745l18.748,-0l0,18.745l37.496,0l0,-18.745l-18.748,-0l0,-37.497l18.748,-0l0,18.746l18.748,-0l0,-18.746l18.749,-0l-0,37.497l-18.749,-0l0,18.745l37.493,0l-0,-18.745l18.748,-0l-0,18.745l37.496,0l0,-18.745l-18.748,-0l-0,-18.751l18.748,-0l0,-18.746l-37.496,-0l-0,18.746l-18.748,-0l-0,-37.492l18.748,0l-0,-18.751l-18.748,0l-0,-37.491l18.748,-0l-0,18.745l18.748,0l-0,-18.745l18.748,-0l0,37.491l-18.748,0l-0,18.751l56.244,0l0,-18.751l-18.748,0l0,-37.491l18.748,-0l0,18.745l18.748,0l0,-18.745l18.749,-0l-0,37.491l-18.749,0l0,18.751l18.749,0l-0,37.492l-18.749,-0l0,-18.746l-37.496,-0l0,18.746l18.748,-0l0,18.751l-18.748,-0l0,18.745l37.496,0l0,-18.745l18.749,-0l-0,18.745l37.492,0l-0,-18.745l-18.744,-0l-0,-37.497l18.744,-0l-0,18.746l18.748,-0l-0,-18.746l18.748,-0l0,37.497l-18.748,-0l-0,18.745l37.496,0l0,-18.745l18.748,-0l0,18.745l37.497,0l-0,-18.745l-18.749,-0l0,-18.751l18.749,-0l-0,-18.746l-37.497,-0l0,18.746l-18.748,-0l0,-56.243l18.748,0l0,18.751l37.497,0l-0,-18.751l-18.749,0l0,-18.746l18.749,0l-0,-18.745l-37.497,-0l0,18.745l-18.748,0l0,-18.745l-37.496,-0l-0,18.745l18.748,0l0,37.497l-18.748,0l-0,-18.751l-18.748,0l-0,18.751l-18.744,0l-0,-37.497l18.744,0l-0,-18.745l-18.744,-0l-0,-18.751l18.744,-0l-0,-18.746l-18.744,-0l-0,-37.497l18.744,0l-0,18.746l18.748,0l-0,-18.746l18.748,0l0,37.497l-18.748,-0l-0,18.746l37.496,-0l0,-18.746l18.748,-0l0,18.746l37.497,-0l-0,-18.746l-18.749,-0l0,-18.751l18.749,0l-0,-18.746l-37.497,0l0,18.746l-18.748,0l0,-56.242l18.748,-0l0,18.751l37.497,-0l-0,-18.751l-18.749,-0l0,-18.746l18.749,-0l-0,-18.746l-37.497,0l0,18.746l-18.748,-0l0,-18.746l-37.496,0l-0,18.746l18.748,-0l0,37.497l-18.748,-0l-0,-18.751l-18.748,-0l-0,18.751l-18.744,-0l-0,-37.497l18.744,-0l-0,-18.746l-37.492,0l-0,18.746l-18.749,-0l0,-18.746l-37.496,0l0,18.746l18.748,-0l0,18.746l-18.748,-0l0,18.751l37.496,-0l0,-18.751l18.749,-0l-0,37.496l-18.749,0l0,18.746l18.749,0l-0,37.497l-18.749,-0l0,-18.746l-18.748,-0l0,18.746l-18.748,-0l0,-37.497l18.748,0l0,-18.746l-56.244,0l-0,18.746l18.748,0l0,37.497l-18.748,-0l-0,-18.746l-18.748,-0l-0,18.746l-18.748,-0l-0,-37.497l18.748,0l-0,-18.746l-18.748,0l-0,-37.496l18.748,-0l-0,18.751l37.496,-0l0,-18.751l-18.748,-0l-0,-18.746l18.748,-0l0,-18.746l-37.496,0l-0,18.746l-18.748,-0l-0,-56.243l18.748,0l-0,18.746l37.496,0l0,-18.746l-18.748,0l-0,-18.745l18.748,-0l0,-18.751l-37.496,-0l-0,18.751l-18.748,-0l-0,-37.497l18.748,-0l-0,-18.751l-18.748,0l-0,-37.492l18.748,0l-0,18.746l18.748,0l-0,-18.746l18.748,0l0,37.492l-18.748,0l-0,18.751l56.244,-0l0,-18.751l-18.748,0l0,-37.492l18.748,0l0,18.746l18.748,0l0,-18.746l18.749,0l-0,37.492l-18.749,0l0,18.751l18.749,-0l-0,37.497l-18.749,-0l0,-18.751l-37.496,-0l0,18.751l18.748,-0l0,18.745l-18.748,0l0,18.746l37.496,0l0,-18.746l18.749,0l-0,18.746l37.492,0l-0,-18.746l-18.744,0l-0,-37.496l18.744,-0l-0,18.751l18.748,-0l-0,-18.751l18.748,-0l0,37.496l-18.748,0l-0,18.746l37.496,0l0,-18.746l18.748,0l0,18.746l37.497,0l-0,-18.746l-18.749,0l0,-18.745l18.749,-0l-0,-18.751l-37.497,-0l0,18.751l-18.748,-0l0,-56.248l18.748,0l0,18.751l37.497,-0l-0,-18.751l-18.749,0l0,-18.746l18.749,0l-0,-18.746l-37.497,0l0,18.746l-18.748,0l0,-18.746l-37.496,0l-0,18.746l18.748,0l0,37.497l-18.748,-0l-0,-18.751l-18.748,0l-0,18.751l-18.744,-0l-0,-37.497l18.744,0l-0,-18.746l-18.744,0l-0,-18.75l18.744,-0l-0,-18.746l-18.744,-0l-0,-37.497l18.744,0l-0,18.751l18.748,0l-0,-18.751l18.748,0l0,37.497l-18.748,-0l-0,18.746l37.496,-0l0,-18.746l18.748,-0l0,18.746l37.497,-0l-0,-18.746l-18.749,-0l0,-18.746l18.749,0l-0,-18.751l-37.497,0l0,18.751l-18.748,0l0,-56.248l18.748,0l0,18.751l37.497,0l-0,-18.751l-18.749,0l0,-18.745l18.749,-0l-0,-18.746l-37.497,-0l0,18.746l-18.748,-0l0,-18.746l-37.496,-0l-0,18.746l18.748,-0l0,37.496l-18.748,0l-0,-18.751l-18.748,0l-0,18.751l-18.744,0l-0,-37.496l18.744,-0l-0,-18.746l-37.492,-0l-0,18.746l-18.749,-0l0,-18.746l-37.496,-0l0,18.746l18.748,-0l0,18.745l-18.748,0l0,18.751l37.496,0l0,-18.751l18.749,0l-0,37.497l-18.749,0l0,18.751l18.749,0l-0,37.492l-18.749,-0l0,-18.746l-18.748,-0l0,18.746l-18.748,-0l0,-37.492l18.748,0l0,-18.751l-56.244,0l-0,18.751l18.748,0l0,37.492l-18.748,-0l-0,-18.746l-18.748,-0l-0,18.746l-18.748,-0l-0,-37.492l18.748,0l-0,-18.751l-18.748,0l-0,-37.497l18.748,0l-0,18.751l37.496,0l0,-18.751l-18.748,0l-0,-18.745l18.748,-0l0,-18.746l-37.496,-0l-0,18.746l-18.748,-0l-0,-18.746l-37.493,-0l0,18.746l18.749,-0l-0,37.496l-18.749,0l0,-18.751l-18.748,0l0,18.751l-18.748,0l0,-37.496l18.748,-0l0,-18.746l-37.496,-0l0,18.746l-18.748,-0l-0,-18.746l-37.495,-0l0,18.746l18.748,-0l0,18.745l-18.748,0l0,18.751l37.495,0l-0,-18.751l18.748,0l0,56.248l-18.748,0l-0,-18.751l-37.495,0l0,18.751l18.748,0l0,18.746l-18.748,-0l0,18.746l37.495,-0l-0,-18.746l18.748,-0l0,18.746l37.496,-0l0,-18.746l-18.748,-0l0,-37.497l18.748,0l0,18.751l18.748,0l0,-18.751l18.749,0l-0,37.497l-18.749,-0l0,18.746l18.749,-0l-0,37.496l-18.749,0l0,-18.746l-37.496,0l0,18.746l18.748,0l0,18.746l-18.748,0l0,18.751l37.496,-0l0,-18.751l18.749,0l-0,37.497l-18.749,-0l0,18.751l18.749,-0l-0,37.491l-18.749,0l0,-18.746l-18.748,0l0,18.746l-18.748,0l0,-37.491l18.748,-0l0,-18.751l-56.244,-0l-0,18.751l18.748,-0l0,37.491l-18.748,0l-0,-18.746l-18.747,0l0,18.746l-18.748,0l0,-37.491l18.748,-0l0,-18.751l-18.748,-0l0,-37.497l18.748,0l0,18.751l37.495,-0l0,-18.751l-18.748,0l-0,-18.746l18.748,0l0,-18.746l-37.495,0l0,18.746l-18.748,0l0,-18.746l-18.747,0l-0,18.746l-18.748,0l-0,-18.746l-37.496,0l0,18.746l18.748,0l0,18.746l-18.748,0l0,18.751l37.496,-0l-0,-18.751l18.748,0l-0,37.497l-18.748,-0l-0,18.751l18.748,-0l-0,37.491l-18.748,0l-0,-18.746l-18.748,0l0,18.746l-18.748,0l0,-37.491l18.748,-0l0,-18.751l-56.243,-0l0,18.751l18.748,-0l-0,37.491l-18.748,0l0,-18.746l-18.747,0l-0,18.746l-18.748,0l-0,-37.491l18.748,-0l-0,-18.751l-18.748,-0l-0,-37.497l18.748,0l-0,18.751l37.495,-0l-0,-18.751l-18.748,0l0,-18.746l18.748,0l-0,-18.746l-37.495,0l-0,18.746l-18.748,0l-0,-37.496l18.748,-0l-0,-18.746l-18.748,-0l-0,-37.497l18.748,0l-0,18.751l18.747,0l0,-18.751l18.748,0l-0,37.497l-18.748,-0l0,18.746l37.495,-0l0,-18.746l18.748,-0l0,18.746l37.496,-0l-0,-18.746l-18.748,-0l-0,-18.746l18.748,0l-0,-18.751l-37.496,0l0,18.751l-18.748,0l0,-56.248l18.748,0l0,18.751l37.496,0l-0,-18.751l-18.748,0l-0,-18.745l18.748,-0l-0,-18.746l-37.496,-0l0,18.746l-18.748,-0l0,-18.746l-37.495,-0l0,18.746l18.748,-0l-0,37.496l-18.748,0l0,-18.751l-18.747,0l-0,18.751l-18.748,0l-0,-37.496l18.748,-0l-0,-18.746l-18.748,-0l-0,-37.497l18.748,0l-0,18.746l37.495,-0l-0,-18.746l-18.748,0l0,-18.746l18.748,0l-0,-18.75l-37.495,-0l-0,18.75l-18.748,0l-0,-37.496l18.748,-0l-0,-18.746l-18.748,-0l-0,-37.497l18.748,0l-0,18.746l18.747,0l0,-18.746l18.748,0l-0,37.497l-18.748,-0l0,18.746l56.243,-0l0,-18.746l-18.748,-0l0,-37.497l18.748,0l0,18.746l18.748,0l-0,-18.746l18.748,0l-0,37.497l-18.748,-0l-0,18.746l18.748,-0l-0,37.496l-18.748,0l-0,-18.75l-37.496,-0l0,18.75l18.748,0l0,18.746l-18.748,0l0,18.746l37.496,-0l-0,-18.746l18.748,0l-0,18.746l37.495,-0l0,-18.746l-18.748,0l0,-37.496l18.748,-0l0,18.75l18.747,0l-0,-18.75l18.748,-0l0,37.496l-18.748,0l-0,18.746l37.496,-0l0,-18.746l18.748,0l0,18.746l37.497,-0l-0,-18.746l-18.749,0l0,-18.746l18.749,0l-0,-18.75l-37.497,-0l0,18.75l-18.748,0l0,-56.242l18.748,-0l0,18.746l37.497,-0l-0,-18.746l-18.749,-0l0,-18.751l18.749,0l-0,-18.746l-37.497,0l0,18.746l-18.748,0l0,-18.746l-37.496,0l-0,18.746l18.748,0l0,37.497l-18.748,-0l-0,-18.746l-18.747,-0l0,18.746l-18.748,-0l0,-37.497l18.748,0l0,-18.746l-18.748,0l0,-18.751l18.748,0l0,-18.745l-18.748,-0l0,-37.497l18.748,-0l0,18.751l18.747,-0l-0,-18.751l18.748,-0l0,37.497l-18.748,-0l-0,18.745l37.496,0l0,-18.745l18.748,-0l0,18.745l37.497,0l-0,-18.745l-18.749,-0l0,-18.746l18.749,-0l-0,-18.751l-37.497,-0l0,18.751l-18.748,-0l0,-56.243l18.748,0l0,18.746l37.497,0l-0,-18.746l-18.749,0l0,-18.751l18.749,0l-0,-18.745l-37.497,-0l0,18.745l-18.748,0l0,-18.745l-37.496,-0l-0,18.745l18.748,0l0,37.497l-18.748,0l-0,-18.746l-18.747,0l0,18.746l-18.748,0l0,-37.497l18.748,0l0,-18.745l-37.495,-0l-0,18.745l-18.748,0l-0,-18.745l-37.496,-0l0,18.745l18.748,0l0,18.751l-18.748,0l0,18.746l37.496,0l-0,-18.746l18.748,0l-0,37.492l-18.748,-0l-0,18.751l18.748,-0l-0,37.491l-18.748,0l-0,-18.745l-18.748,-0l0,18.745l-18.748,0l0,-37.491l18.748,-0l0,-18.751l-56.243,-0l0,18.751l18.748,-0l-0,37.491l-18.748,0l0,-18.745l-18.747,-0l-0,18.745l-18.748,0l-0,-37.491l18.748,-0l-0,-18.751l-18.748,-0l-0,-37.492l18.748,0l-0,18.746l37.495,0l-0,-18.746l-18.748,0l0,-18.751l18.748,0l-0,-18.745l-37.495,-0l-0,18.745l-18.748,0l-0,-37.496l18.748,-0l-0,-18.746l-18.748,0l-0,-37.495l18.748,-0l-0,18.748l18.747,-0l0,-18.748l18.748,-0l-0,37.495l-18.748,0l0,18.746l37.495,-0l0,-18.746l18.748,0l0,18.746l37.496,-0l-0,-18.746l-18.748,0l-0,-18.747l18.748,-0l-0,-18.748l-37.496,-0l0,18.748l-18.748,-0l0,-56.243l18.748,-0l0,18.748l37.496,-0l-0,-18.748l-18.748,-0l-0,-18.748l18.748,-0l-0,-18.748l-37.496,0l0,18.748l-18.748,-0l0,-18.748l-37.495,0l0,18.748l18.748,-0l-0,37.496l-18.748,-0l0,-18.748l-18.747,-0l-0,18.748l-18.748,-0l-0,-37.496l18.748,-0l-0,-18.748l-18.748,0l-0,-37.495l18.748,-0l-0,18.748l37.495,-0l-0,-18.748l-18.748,-0l0,-18.748l18.748,0l-0,-18.747l-37.495,-0l-0,18.747l-18.748,0l-0,-37.495l18.748,-0l-0,-18.748l-18.748,0l-0,-37.495l18.748,-0l-0,18.748l18.747,-0l0,-18.748l18.748,-0l-0,37.495l-18.748,0l0,18.748l56.243,-0l0,-18.748l-18.748,0l0,-37.495l18.748,-0l0,18.748l18.748,-0l-0,-18.748l18.748,-0l-0,37.495l-18.748,0l-0,18.748l18.748,-0l-0,37.495l-18.748,0l-0,-18.747l-37.496,-0l0,18.747l18.748,0l0,18.748l-18.748,-0l0,18.748l37.496,-0l-0,-18.748l18.748,-0l-0,18.748l18.747,-0l0,-18.748l18.748,-0l0,18.748l37.495,-0l0,-18.748l-18.748,-0l-0,-18.748l18.748,0l0,-18.747l-37.495,-0l0,18.747l-18.748,0l0,-37.495l18.748,-0l0,-18.748l-18.748,0l0,-37.495l18.748,-0l0,18.748l18.747,-0l-0,-18.748l18.748,-0l0,37.495l-18.748,0l-0,18.748l56.244,-0l0,-18.748l-18.748,0l0,-37.495l18.748,-0l0,18.748l18.748,-0l0,-18.748l18.749,-0l-0,37.495l-18.749,0l0,18.748l18.749,-0l-0,37.495l-18.749,0l0,-18.747l-37.496,-0l0,18.747l18.748,0l0,18.748l-18.748,-0l0,18.748l37.496,-0l0,-18.748l18.749,-0l-0,37.495l-18.749,0l0,18.748l18.749,-0l-0,37.496l-18.749,-0l0,-18.748l-18.748,-0l0,18.748l-18.748,-0l0,-37.496l18.748,-0l0,-18.748l-37.496,0l0,18.748l-18.748,-0l-0,-18.748l-37.495,0l0,18.748l18.748,-0l0,18.748l-18.748,-0l0,18.748l37.495,-0l-0,-18.748l18.748,-0l0,56.243l-18.748,-0l-0,-18.748l-37.495,-0l0,18.748l18.748,-0l0,18.747l-18.748,0l0,18.746l37.495,-0l-0,-18.746l18.748,0l0,18.746l37.496,-0l0,-18.746l-18.748,0l0,-37.495l18.748,-0l0,18.748l18.748,-0l0,-18.748l18.749,-0l-0,37.495l-18.749,0l0,18.746l56.241,-0l-0,-18.746l-18.748,0l-0,-37.495l18.748,-0l-0,18.748l18.748,-0l-0,-18.748l18.748,-0l0,37.495l-18.748,0l-0,18.746l37.496,-0l0,-18.746l18.748,0l0,18.746l37.497,-0l-0,-18.746l-18.749,0l0,-18.747l18.749,-0l-0,-18.748l-37.497,-0l0,18.748l-18.748,-0l0,-56.243l18.748,-0l0,18.748l37.497,-0l-0,-18.748l-18.749,-0l0,-18.748l18.749,-0l-0,-18.748l-37.497,0l0,18.748l-18.748,-0l0,-18.748l-37.496,0l-0,18.748l18.748,-0l0,37.496l-18.748,-0l-0,-18.748l-18.748,-0l-0,18.748l-18.748,-0l-0,-37.496l18.748,-0l-0,-18.748l-18.748,0l-0,-37.495l18.748,-0l-0,18.748l37.496,-0l0,-18.748l-18.748,-0l-0,-18.748l18.748,0l0,-18.747l-37.496,-0l-0,18.747l-18.748,0l-0,-37.495l18.748,-0l-0,-18.748l-18.748,0l-0,-37.495l18.748,-0l-0,18.748l18.748,-0l-0,-18.748l18.748,-0l0,37.495l-18.748,0l-0,18.748l56.244,-0l0,-18.748l-18.748,0l0,-37.495l18.748,-0l0,18.748l18.748,-0l0,-18.748l18.749,-0l-0,37.495l-18.749,0l0,18.748l18.749,-0l-0,37.495l-18.749,0l0,-18.747l-37.496,-0l0,18.747l18.748,0l0,18.748l-18.748,-0l0,18.748l37.496,-0l0,-18.748l18.749,-0l-0,18.748l18.748,-0l-0,-18.748l18.744,-0l-0,18.748l37.496,-0l0,-18.748l-18.748,-0l-0,-18.748l18.748,0l0,-18.747l-37.496,-0l-0,18.747l-18.744,0l-0,-37.495l18.744,-0l-0,-18.748l-18.744,0l-0,-37.495l18.744,-0l-0,18.748l18.748,-0l-0,-18.748l18.748,-0l0,37.495l-18.748,0l-0,18.748l56.244,-0l0,-18.748l-18.748,0l0,-37.495l18.748,-0l0,18.748l18.748,-0l0,-18.748l18.749,-0l-0,37.495l-18.749,0l0,18.748l18.749,-0l-0,37.495l-18.749,0l0,-18.747l-37.496,-0l0,18.747l18.748,0l0,18.748l-18.748,-0l0,18.748l37.496,-0l0,-18.748l18.749,-0l-0,37.495l-18.749,0l0,18.748l18.749,-0l-0,37.496l-18.749,-0l0,-18.748l-18.748,-0l0,18.748l-18.748,-0l0,-37.496l18.748,-0l0,-18.748l-37.496,0l0,18.748l-18.748,-0l-0,-18.748l-37.492,0l-0,18.748l18.744,-0l-0,18.748l-18.744,-0l-0,18.748l37.492,-0l-0,-18.748l18.748,-0l0,56.243l-18.748,-0l-0,-18.748l-37.492,-0l-0,18.748l18.744,-0l-0,18.747l-18.744,0l-0,18.746l37.492,-0l-0,-18.746l18.748,0l0,18.746l37.496,-0l0,-18.746l-18.748,0l0,-37.495l18.748,-0l0,18.748l18.748,-0l0,-18.748l18.749,-0l-0,37.495l-18.749,0l0,18.746l18.749,-0l-0,37.496l-18.749,0l0,-18.745l-37.496,-0l0,18.745l18.748,0l0,18.751l-18.748,0l0,18.746l37.496,0l0,-18.746l18.749,0l-0,37.492l-18.749,-0l0,18.751l18.749,-0l-0,37.491l-18.749,0l0,-18.745l-18.748,-0l0,18.745l-18.748,0l0,-37.491l18.748,-0l0,-18.751l-56.244,-0l-0,18.751l18.748,-0l0,37.491l-18.748,0l-0,-18.745l-18.748,-0l-0,18.745l-18.744,0l-0,-37.491l18.744,-0l-0,-18.751l-18.744,-0l-0,-37.492l18.744,0l-0,18.746l37.496,0l0,-18.746l-18.748,0l-0,-18.751l18.748,0l0,-18.745l-37.496,-0l-0,18.745l-18.744,0l-0,-18.745l-37.497,-0l0,18.745l18.749,0l-0,37.497l-18.749,0l0,-18.746l-18.748,0l0,18.746l-18.748,0l0,-37.497l18.748,0l0,-18.745l-37.496,-0l0,18.745l-18.748,0l-0,-18.745l-37.496,-0l-0,18.745l18.748,0l-0,18.751l-18.748,0l-0,18.746l37.496,0l-0,-18.746l18.748,0l0,56.243l-18.748,-0l-0,-18.751l-37.496,-0l-0,18.751l18.748,-0l-0,18.746l-18.748,-0l-0,18.745l37.496,0l-0,-18.745l18.748,-0l0,18.745l37.496,0l0,-18.745l-18.748,-0l0,-37.497l18.748,-0l0,18.751l18.748,-0l0,-18.751l18.749,-0l-0,37.497l-18.749,-0l0,18.745l18.749,0l-0,18.751l-18.749,0l0,18.746l18.749,0l-0,37.497l-18.749,-0l0,-18.746l-18.748,-0l0,18.746l-18.748,-0l0,-37.497l18.748,0l0,-18.746l-37.496,0l0,18.746l-18.748,0l-0,-18.746l-37.496,0l-0,18.746l18.748,0l-0,18.751l-18.748,-0l-0,18.746l37.496,-0l-0,-18.746l18.748,-0l0,56.242l-18.748,0l-0,-18.75l-37.496,-0l-0,18.75l18.748,0l-0,18.746l-18.748,0l-0,18.746l37.496,-0l-0,-18.746l18.748,0l0,18.746l37.496,-0l0,-18.746l-18.748,0l0,-37.496l18.748,-0l0,18.75l18.748,0l0,-18.75l18.749,-0l-0,37.496l-18.749,0l0,18.746l37.497,-0l-0,-18.746l18.744,0l-0,18.746l37.496,-0l0,-18.746l-18.748,0l-0,-18.746l18.748,0l0,-18.75l-37.496,-0l-0,18.75l-18.744,0l-0,-37.496l18.744,-0l-0,-18.746l-18.744,-0l-0,-37.497l18.744,0l-0,18.746l18.748,0l-0,-18.746l18.748,0l0,37.497l-18.748,-0l-0,18.746l56.244,-0l0,-18.746l-18.748,-0l0,-37.497l18.748,0l0,18.746l18.748,0l0,-18.746l18.749,0l-0,37.497l-18.749,-0l0,18.746l18.749,-0l-0,37.496l-18.749,0l0,-18.75l-37.496,-0l0,18.75l18.748,0l0,18.746l-18.748,0l0,18.746l37.496,-0l0,-18.746l18.749,0l-0,18.746l18.748,-0l-0,-18.746l18.748,0l-0,18.746l37.492,-0l-0,-18.746l-18.748,0l-0,-18.746l18.748,0l-0,-18.75l-37.492,-0l-0,18.75l-18.748,0l-0,-37.496l18.748,-0l-0,-18.746l-18.748,-0l-0,-37.497l18.748,0l-0,18.746l18.744,0l-0,-18.746l18.748,0l-0,37.497l-18.748,-0l-0,18.746l56.244,-0l0,-18.746l-18.748,-0l0,-37.497l18.748,0l0,18.746l18.748,0l0,-18.746l18.748,0l0,37.497l-18.748,-0l0,18.746l18.748,-0l0,37.496l-18.748,0l0,-18.75l-37.496,-0l0,18.75l18.748,0l0,18.746l-18.748,0l0,18.746l37.496,-0l0,-18.746l18.748,0l0,18.746l37.497,-0l-0,-18.746l-18.748,0l-0,-37.496l18.748,-0l-0,18.75l18.748,0l-0,-18.75l18.744,-0l-0,37.496l-18.744,0l-0,18.746l37.492,-0l0,-18.746l18.748,0l0,18.746l37.496,-0l0,-18.746l-18.748,0l0,-18.746l18.748,0l0,-18.75l-37.496,-0l0,18.75l-18.748,0l0,-56.242l18.748,-0l0,18.746l37.496,-0l0,-18.746l-18.748,-0l0,-18.751l18.748,0l0,-18.746l-37.496,0l0,18.746l-18.748,0l0,-18.746l-37.492,0l-0,18.746l18.744,0l-0,37.497l-18.744,-0l-0,-18.746l-18.748,-0l-0,18.746l-18.748,-0l-0,-37.497l18.748,0l-0,-18.746l-18.748,0l-0,-18.751l18.748,0l-0,-18.745l-18.748,-0l-0,-37.497l18.748,-0l-0,18.751l18.748,-0l-0,-18.751l18.744,-0l-0,37.497l-18.744,-0l-0,18.745l37.492,0l0,-18.745l18.748,-0l0,18.745l37.496,0l0,-18.745l-18.748,-0l0,-18.746l18.748,-0l0,-18.751l-37.496,-0l0,18.751l-18.748,-0l0,-56.243l18.748,0l0,18.746l37.496,0l0,-18.746l-18.748,0l0,-18.751l18.748,0l0,-18.745l-37.496,-0l0,18.745l-18.748,0l0,-18.745l-37.492,-0l-0,18.745l18.744,0l-0,37.497l-18.744,0l-0,-18.746l-18.748,0l-0,18.746l-18.748,0l-0,-37.497l18.748,0l-0,-18.745l-37.497,-0l0,18.745l-18.748,0l0,-18.745l-37.496,-0l0,18.745l18.748,0l0,18.751l-18.748,0l0,18.746l37.496,0l0,-18.746l18.748,0l0,37.492l-18.748,-0l0,18.751l18.748,-0l0,37.491l-18.748,0l0,-18.745l-18.748,-0l0,18.745l-18.748,0l0,-37.491l18.748,-0l0,-18.751l-56.244,-0l-0,18.751l18.748,-0l-0,37.491l-18.748,0l-0,-18.745l-18.744,-0l-0,18.745l-18.748,0l-0,-37.491l18.748,-0l-0,-18.751l-18.748,-0l-0,-37.492l18.748,0l-0,18.746l37.492,0l-0,-18.746l-18.748,0l-0,-18.751l18.748,0l-0,-18.745l-37.492,-0l-0,18.745l-18.748,0l-0,-37.496l18.748,-0l-0,-18.746l-18.748,0l-0,-37.495l18.748,-0l-0,18.748l18.744,-0l-0,-18.748l18.748,-0l-0,37.495l-18.748,0l-0,18.746l37.496,-0l0,-18.746l18.748,0l0,18.746l37.496,-0l0,-18.746l-18.748,0l0,-18.747l18.748,-0l0,-18.748l-37.496,-0l0,18.748l-18.748,-0l0,-56.243l18.748,-0l0,18.748l37.496,-0l0,-18.748l-18.748,-0l0,-18.748l18.748,-0l0,-18.748l-37.496,0l0,18.748l-18.748,-0l0,-18.748l-37.496,0l-0,18.748l18.748,-0l-0,37.496l-18.748,-0l-0,-18.748l-18.744,-0l-0,18.748l-18.748,-0l-0,-37.496l18.748,-0l-0,-18.748l-18.748,0l-0,-37.495l18.748,-0l-0,18.748l37.492,-0l-0,-18.748l-18.748,-0l-0,-18.748l18.748,0l-0,-18.747l-37.492,-0l-0,18.747l-18.748,0l-0,-37.495l18.748,-0l-0,-18.748l-18.748,0l-0,-37.495l18.748,-0l-0,18.748l18.744,-0l-0,-18.748l18.748,-0l-0,37.495l-18.748,0l-0,18.748l56.244,-0l0,-18.748l-18.748,0l0,-37.495l18.748,-0l0,18.748l18.748,-0l0,-18.748l18.748,-0l0,37.495l-18.748,0l0,18.748l18.748,-0l0,37.495l-18.748,0l0,-18.747l-37.496,-0l0,18.747l18.748,0l0,18.748l-18.748,-0l0,18.748l37.496,-0l0,-18.748l18.748,-0l0,18.748l18.749,-0l-0,-18.748l18.748,-0l-0,18.748l37.492,-0l-0,-18.748l-18.744,-0l-0,-18.748l18.744,0l-0,-18.747l-37.492,-0l-0,18.747l-18.748,0l-0,-37.495l18.748,-0l-0,-18.748l-18.748,0l-0,-37.495l18.748,-0l-0,18.748l18.748,-0l-0,-18.748l18.744,-0l-0,37.495l-18.744,0l-0,18.748l56.24,-0l0,-18.748l-18.748,0l0,-37.495l18.748,-0l0,18.748l18.748,-0l0,-18.748l18.748,-0l0,37.495l-18.748,0l0,18.748l18.748,-0l0,37.495l-18.748,0l0,-18.747l-37.496,-0l0,18.747l18.748,0l0,18.748l-18.748,-0l0,18.748l37.496,-0l0,-18.748l18.748,-0l0,37.495l-18.748,0l0,18.748l18.748,-0l0,37.496l-18.748,-0l0,-18.748l-18.748,-0l0,18.748l-18.748,-0l0,-37.496l18.748,-0l0,-18.748l-37.496,0l-0,18.748l-18.744,-0l-0,-18.748l-37.496,0l-0,18.748l18.748,-0l-0,18.748l-18.748,-0l-0,18.748l37.496,-0l-0,-18.748l18.744,-0l-0,56.243l-18.744,-0l-0,-18.748l-37.496,-0l-0,18.748l18.748,-0l-0,18.747l-18.748,0l-0,18.746l37.496,-0l-0,-18.746l18.744,0l-0,18.746l37.496,-0l0,-18.746l-18.748,0l0,-37.495l18.748,-0l0,18.748l18.748,-0l0,-18.748l18.748,-0l0,37.495l-18.748,0l0,18.746l56.245,-0l-0,-18.746l-18.748,0l-0,-37.495l18.748,-0l-0,18.748l18.748,-0l-0,-18.748l18.748,-0l-0,37.495l-18.748,0l-0,18.746l37.492,-0l0,-18.746l18.748,0l0,18.746l37.496,-0l0,-18.746l-18.748,0l0,-18.747l18.748,-0l0,-18.748l-37.496,-0l0,18.748l-18.748,-0l0,-56.243l18.748,-0l0,18.748l37.496,-0l0,-18.748l-18.748,-0l0,-18.748l18.748,-0l0,-18.748l-37.496,0l0,18.748l-18.748,-0l0,-18.748l-37.492,0l-0,18.748l18.748,-0l-0,37.496l-18.748,-0l-0,-18.748l-18.748,-0l-0,18.748l-18.748,-0l-0,-37.496l18.748,-0l-0,-18.748l-18.748,0l-0,-37.495l18.748,-0l-0,18.748l37.496,-0l-0,-18.748l-18.748,-0l-0,-18.748l18.748,0l-0,-18.747l-37.496,-0l-0,18.747l-18.748,0l-0,-37.495l18.748,-0l-0,-18.748l-18.748,0l-0,-37.495l18.748,-0l-0,18.748l18.748,-0l-0,-18.748l18.748,-0l-0,37.495l-18.748,0l-0,18.748l56.24,-0l0,-18.748l-18.748,0l0,-37.495l18.748,-0l0,18.748l18.748,-0l0,-18.748l18.748,-0l0,37.495l-18.748,0l0,18.748l18.748,-0l0,37.495l-18.748,0l0,-18.747l-37.496,-0l0,18.747l18.748,0l0,18.748l-18.748,-0l0,18.748l37.496,-0l0,-18.748l18.748,-0l0,18.748l18.749,-0l-0,-18.748l18.748,-0l-0,18.748l37.496,-0l-0,-18.748l-18.748,-0l-0,-18.748l18.748,0l-0,-18.747l-37.496,-0l-0,18.747l-18.748,0l-0,-37.495l18.748,-0l-0,-18.748l-18.748,0l-0,-37.495l18.748,-0l-0,18.748l18.748,-0l-0,-18.748l18.748,-0l-0,37.495l-18.748,0l-0,18.748l56.24,-0l0,-18.748l-18.744,0l0,-37.495l18.744,-0l0,18.748l18.748,-0l0,-18.748l18.748,-0l0,37.495l-18.748,0l0,18.748l18.748,-0l0,37.495l-18.748,0l0,-18.747l-37.492,-0l0,18.747l18.744,0l0,18.748l-18.744,-0l0,18.748l37.492,-0l0,-18.748l18.748,-0l0,37.495l-18.748,0l0,18.748l18.748,-0l0,37.496l-18.748,-0l0,-18.748l-18.748,-0l0,18.748l-18.744,-0l0,-37.496l18.744,-0l0,-18.748l-37.492,0l-0,18.748l-18.748,-0l-0,-18.748l-37.496,0l-0,18.748l18.748,-0l-0,18.748l-18.748,-0l-0,18.748l37.496,-0l-0,-18.748l18.748,-0l-0,56.243l-18.748,-0l-0,-18.748l-37.496,-0l-0,18.748l18.748,-0l-0,18.747l-18.748,0l-0,18.746l37.496,-0l-0,-18.746l18.748,0l-0,18.746l37.492,-0l0,-18.746l-18.744,0l0,-37.495l18.744,-0l0,18.748l18.748,-0l0,-18.748l18.748,-0l0,37.495l-18.748,0l0,18.746l18.748,-0l0,37.496l-18.748,0l0,-18.745l-37.492,-0l0,18.745l18.744,0l0,18.751l-18.744,0l0,18.746l37.492,0l0,-18.746l18.748,0l0,37.492l-18.748,-0l0,18.751l18.748,-0l0,37.491l-18.748,0l0,-18.745l-18.748,-0l0,18.745l-18.744,0l0,-37.491l18.744,-0l0,-18.751l-56.24,-0l-0,18.751l18.748,-0l-0,37.491l-18.748,0l-0,-18.745l-18.748,-0l-0,18.745l-18.748,0l-0,-37.491l18.748,-0l-0,-18.751l-18.748,-0l-0,-37.492l18.748,0l-0,18.746l37.496,0l-0,-18.746l-18.748,0l-0,-18.751l18.748,0l-0,-18.745l-37.496,-0l-0,18.745l-18.748,0l-0,-18.745l-37.497,-0l0,18.745l18.748,0l0,37.497l-18.748,0l0,-18.746l-18.748,0l0,18.746l-18.748,0l0,-37.497l18.748,0l0,-18.745l-37.492,-0l-0,18.745l-18.748,0l-0,-18.745l-37.496,-0l-0,18.745l18.748,0l-0,18.751l-18.748,0l-0,18.746l37.496,0l-0,-18.746l18.748,0l-0,56.243l-18.748,-0l-0,-18.751l-37.496,-0l-0,18.751l18.748,-0l-0,18.746l-18.748,-0l-0,18.745l37.496,0l-0,-18.745l18.748,-0l-0,18.745l37.492,0l0,-18.745l-18.748,-0l0,-37.497l18.748,-0l0,18.751l18.748,-0l0,-18.751l18.748,-0l0,37.497l-18.748,-0l0,18.745l18.748,0l0,18.751l-18.748,0l0,18.746l18.748,0l0,37.497l-18.748,-0l0,-18.746l-18.748,-0l0,18.746l-18.748,-0l0,-37.497l18.748,0l0,-18.746l-37.492,0l-0,18.746l-18.748,0l-0,-18.746l-37.496,0l-0,18.746l18.748,0l-0,18.751l-18.748,-0l-0,18.746l37.496,-0l-0,-18.746l18.748,-0l-0,56.242l-18.748,0l-0,-18.75l-37.496,-0l-0,18.75l18.748,0l-0,18.746l-18.748,0l-0,18.746l37.496,-0l-0,-18.746l18.748,0l-0,18.746l37.492,-0l0,-18.746l-18.748,0l0,-37.496l18.748,-0l0,18.75l18.748,0l0,-18.75l18.748,-0l0,37.496l-18.748,0l0,18.746l37.497,-0l-0,-18.746l18.748,0l-0,18.746l37.496,-0l-0,-18.746l-18.748,0l-0,-18.746l18.748,0l-0,-18.75l-37.496,-0l-0,18.75l-18.748,0l-0,-37.496l18.748,-0l-0,-18.746l-18.748,-0l-0,-37.497l18.748,0l-0,18.746l18.748,0l-0,-18.746l18.748,0l-0,37.497l-18.748,-0l-0,18.746l56.24,-0l0,-18.746l-18.744,-0l0,-37.497l18.744,0l0,18.746l18.748,0l0,-18.746l18.748,0l0,37.497l-18.748,-0l0,18.746l18.748,-0l0,37.496l-18.748,0l0,-18.75l-37.492,-0l0,18.75l18.744,0l0,18.746l-18.744,0l0,18.746l37.492,-0l0,-18.746l18.748,0l0,37.497l-18.748,-0l0,18.746l18.748,-0l0,37.496l-18.748,0l0,-18.751l-18.748,0l0,18.751l-18.744,0l0,-37.496l18.744,-0l0,-18.746l-37.492,-0l-0,18.746l-18.748,-0l-0,-18.746l-37.496,-0l-0,18.746l18.748,-0l-0,18.745l-18.748,0l-0,18.751l37.496,0l-0,-18.751l18.748,0l-0,56.248l-18.748,0l-0,-18.751l-37.496,0l-0,18.751l18.748,0l-0,18.746l-18.748,-0l-0,18.746l37.496,-0l-0,-18.746l18.748,-0l-0,18.746l37.492,-0l0,-18.746l-18.744,-0l0,-37.497l18.744,0l0,18.751l18.748,0l0,-18.751l18.748,0l0,37.497l-18.748,-0l0,18.746l18.748,-0l0,37.496l-18.748,0l0,-18.746l-37.492,0l0,18.746l18.744,0l0,18.746l-18.744,0l0,18.751l37.492,-0l0,-18.751l18.748,0l0,37.497l-18.748,-0l0,18.751l18.748,-0l0,37.491l-18.748,0l0,-18.746l-18.748,0l0,18.746l-18.744,0l0,-37.491l18.744,-0l0,-18.751l-56.24,-0l-0,18.751l18.748,-0l-0,37.491l-18.748,0l-0,-18.746l-18.748,0l-0,18.746l-18.748,0l-0,-37.491l18.748,-0l-0,-18.751l-18.748,-0l-0,-37.497l18.748,0l-0,18.751l37.496,-0l-0,-18.751l-18.748,0l-0,-18.746l18.748,0l-0,-18.746l-37.496,0l-0,18.746l-18.748,0l-0,-18.746l-18.749,0l0,18.746l-18.748,0l0,-18.746l-37.496,0l0,18.746l18.748,0l0,18.746l-18.748,0l0,18.751l37.496,-0l0,-18.751l18.748,0l0,37.497l-18.748,-0l0,18.751l18.748,-0l0,37.491l-18.748,0l0,-18.746l-18.748,0l0,18.746l-18.748,0l0,-37.491l18.748,-0l0,-18.751l-56.24,-0l-0,18.751l18.748,-0l-0,37.491l-18.748,0l-0,-18.746l-18.748,0l-0,18.746l-18.748,0l-0,-37.491l18.748,-0l-0,-18.751l-18.748,-0l-0,-37.497l18.748,0l-0,18.751l37.496,-0l-0,-18.751l-18.748,0l-0,-18.746l18.748,0l-0,-18.746l-37.496,0l-0,18.746l-18.748,0l-0,-37.496l18.748,-0l-0,-18.746l-18.748,-0l-0,-37.497l18.748,0l-0,18.751l18.748,0l-0,-18.751l18.748,0l-0,37.497l-18.748,-0l-0,18.746l37.492,-0l0,-18.746l18.748,-0l0,18.746l37.496,-0l0,-18.746l-18.748,-0l0,-18.746l18.748,0l0,-18.751l-37.496,0l0,18.751l-18.748,0l0,-56.248l18.748,0l0,18.751l37.496,0l0,-18.751l-18.748,0l0,-18.745l18.748,-0l0,-18.746l-37.496,-0l0,18.746l-18.748,-0l0,-18.746l-37.492,-0l-0,18.746l18.748,-0l-0,37.496l-18.748,0l-0,-18.751l-18.748,0l-0,18.751l-18.748,0l-0,-37.496l18.748,-0l-0,-18.746l-37.497,-0l0,18.746l-18.748,-0l0,-18.746l-37.496,-0l0,18.746l18.748,-0l0,18.745l-18.748,0l0,18.751l37.496,0l0,-18.751l18.748,0l0,37.497l-18.748,0l0,18.751l18.748,0l0,37.492l-18.748,-0l0,-18.746l-18.748,-0l0,18.746l-18.748,-0l0,-37.492l18.748,0l0,-18.751l-56.24,0l-0,18.751l18.744,0l-0,37.492l-18.744,-0l-0,-18.746l-18.748,-0l-0,18.746l-18.748,-0l-0,-37.492l18.748,0l-0,-18.751l-18.748,0l-0,-37.497l18.748,0l-0,18.751l37.492,0l-0,-18.751l-18.744,0l-0,-18.745l18.744,-0l-0,-18.746l-37.492,-0l-0,18.746l-18.748,-0l-0,-18.746l-37.497,-0l0,18.746l18.748,-0l0,37.496l-18.748,0l0,-18.751l-18.748,0l0,18.751l-18.748,0l0,-37.496l18.748,-0l0,-18.746l-37.496,-0l-0,18.746l-18.748,-0l-0,-18.746l-37.492,-0l-0,18.746l18.748,-0l-0,18.745l-18.748,0l-0,18.751l37.492,0l-0,-18.751l18.748,0l-0,56.248l-18.748,0l-0,-18.751l-37.492,0l-0,18.751l18.748,0l-0,18.746l-18.748,-0l-0,18.746l37.492,-0l-0,-18.746l18.748,-0l-0,18.746l37.496,-0l0,-18.746l-18.748,-0l0,-37.497l18.748,0l0,18.751l18.748,0l0,-18.751l18.748,0l0,37.497l-18.748,-0l0,18.746l18.748,-0l0,18.75l-18.748,0l0,18.746l18.748,0l0,37.497l-18.748,-0l0,-18.751l-18.748,0l0,18.751l-18.748,-0l0,-37.497l18.748,0l0,-18.746l-37.496,0l-0,18.746l-18.748,0l-0,-18.746l-37.492,0l-0,18.746l18.748,0l-0,18.746l-18.748,0l-0,18.751l37.492,-0l-0,-18.751l18.748,0l-0,56.248l-18.748,-0l-0,-18.751l-37.492,-0l-0,18.751l18.748,-0l-0,18.745l-18.748,0l-0,18.746l37.492,0l-0,-18.746l18.748,0l-0,18.746l37.496,0l0,-18.746l-18.748,0l0,-37.496l18.748,-0l0,18.751l18.748,-0l0,-18.751l18.748,-0l0,37.496l-18.748,0l0,18.746l37.497,0l-0,-18.746l18.748,0l-0,18.746l37.492,0l-0,-18.746l-18.744,0l-0,-18.745l18.744,-0l-0,-18.751l-37.492,-0l-0,18.751l-18.748,-0l-0,-37.497l18.748,-0l-0,-18.751l-18.748,0l-0,-37.492l18.748,0l-0,18.746l18.748,0l-0,-18.746l18.744,0l-0,37.492l-18.744,0l-0,18.751l56.24,-0l0,-18.751l-18.748,0l0,-37.492l18.748,0l0,18.746l18.748,0l0,-18.746l18.748,0l0,37.492l-18.748,0l0,18.751l18.748,-0l0,37.497l-18.748,-0l0,-18.751l-37.496,-0l0,18.751l18.748,-0l0,18.745l-18.748,0l0,18.746l37.496,0l0,-18.746l18.748,0l0,56.243l-18.748,-0l0,-18.746l-37.496,0l0,18.746l18.748,-0l0,18.746l-18.748,-0l0,18.751l37.496,-0l0,-18.751l18.748,-0l0,37.496l-18.748,0l0,18.746l18.748,0l0,37.497l-18.748,-0l0,-18.746l-18.748,-0l0,18.746l-18.748,-0l0,-37.497l18.748,0l0,-18.746l-56.24,0l-0,18.746l18.744,0l-0,37.497l-18.744,-0l-0,-18.746l-18.748,-0l-0,18.746l-18.748,-0l-0,-37.497l18.748,0l-0,-18.746l-18.748,0l-0,-37.496l18.748,-0l-0,18.751l37.492,-0l-0,-18.751l-18.744,-0l-0,-18.746l18.744,-0l-0,-18.746l-37.492,0l-0,18.746l-18.748,-0l-0,-18.746l-37.497,0l0,18.746l18.748,-0l0,37.497l-18.748,-0l0,-18.751l-18.748,-0l0,18.751l-18.748,-0l0,-37.497l18.748,-0l0,-18.746l-37.496,0l-0,18.746l-18.748,-0l-0,-18.746l-37.492,0l-0,18.746l18.748,-0l-0,18.746l-18.748,-0l-0,18.751l37.492,-0l-0,-18.751l18.748,-0l-0,56.242l-18.748,0l-0,-18.746l-37.492,0l-0,18.746l18.748,0l-0,18.751l-18.748,-0l-0,18.746l37.492,-0l-0,-18.746l18.748,-0l-0,18.746l37.496,-0l0,-18.746l-18.748,-0l0,-37.497l18.748,0l0,18.746l18.748,0l0,-18.746l18.748,0l0,37.497l-18.748,-0l0,18.746l18.748,-0l0,18.751l-18.748,-0l0,18.745l18.748,0l0,37.497l-18.748,0l0,-18.751l-18.748,0l0,18.751l-18.748,0l0,-37.497l18.748,0l0,-18.745l-37.496,-0l-0,18.745l-18.748,0l-0,-18.745l-37.492,-0l-0,18.745l18.748,0l-0,18.746l-18.748,0l-0,18.751l37.492,0l-0,-18.751l18.748,0l-0,56.243l-18.748,-0l-0,-18.746l-37.492,-0l-0,18.746l18.748,-0l-0,18.751l-18.748,-0l-0,18.745l37.492,0l-0,-18.745l18.748,-0l-0,18.745l37.496,0l0,-18.745l-18.748,-0l0,-37.497l18.748,-0l0,18.746l18.748,-0l0,-18.746l18.748,-0l0,37.497l-18.748,-0l0,18.745l37.497,0l-0,-18.745l18.748,-0l-0,18.745l37.492,0l-0,-18.745l-18.744,-0l-0,-18.751l18.744,-0l-0,-18.746l-37.492,-0l-0,18.746l-18.748,-0l-0,-37.492l18.748,0l-0,-18.751l-18.748,0l-0,-37.491l18.748,-0l-0,18.745l18.748,0l-0,-18.745l18.744,-0l-0,37.491l-18.744,0l-0,18.751l56.24,0l0,-18.751l-18.748,0l0,-37.491l18.748,-0l0,18.745l18.748,0l0,-18.745l18.748,-0l0,37.491l-18.748,0l0,18.751l18.748,0l0,37.492l-18.748,-0l0,-18.746l-37.496,-0l0,18.746l18.748,-0l0,18.751l-18.748,-0l0,18.745l37.496,0l0,-18.745l18.748,-0l0,18.745l37.497,0l-0,-18.745l-18.748,-0l-0,-37.497l18.748,-0l-0,18.746l18.748,-0l-0,-18.746l18.748,-0l-0,37.497l-18.748,-0l-0,18.745l37.492,0l0,-18.745l18.748,-0l0,18.745l37.496,0l0,-18.745l-18.748,-0l0,-18.751l18.748,-0l0,-18.746l-37.496,-0l0,18.746l-18.748,-0l0,-56.243l18.748,0l0,18.751l37.496,0l0,-18.751l-18.748,0l0,-18.746l18.748,0l0,-18.745l-37.496,-0l0,18.745l-18.748,0l0,-18.745l-37.492,-0l-0,18.745l18.748,0l-0,37.497l-18.748,0l-0,-18.751l-18.748,0l-0,18.751l-18.748,0l-0,-37.497l18.748,0l-0,-18.745l-18.748,-0l-0,-37.497l18.748,-0l-0,18.746l37.496,-0l-0,-18.746l-18.748,-0l-0,-18.751l18.748,0l-0,-18.746l-37.496,0l-0,18.746l-18.748,0l-0,-37.491l18.748,-0l-0,-18.751l-18.748,-0l-0,-37.492l18.748,0l-0,18.746l18.748,-0l-0,-18.746l18.748,0l-0,37.492l-18.748,-0l-0,18.751l56.24,-0l0,-18.751l-18.748,-0l0,-37.492l18.748,0l0,18.746l18.748,-0l0,-18.746l18.748,0l0,37.492l-18.748,-0l0,18.751l18.748,-0l0,37.491l-18.748,0l0,-18.746l-37.496,0l0,18.746l18.748,0l0,18.751l-18.748,-0l0,18.746l37.496,-0l0,-18.746l18.748,-0l0,18.746l18.749,-0l-0,-18.746l18.748,-0l-0,18.746l37.496,-0l-0,-18.746l-18.748,-0l-0,-18.751l18.748,0l-0,-18.746l-37.496,0l-0,18.746l-18.748,0l-0,-37.491l18.748,-0l-0,-18.751l-18.748,-0l-0,-37.492l18.748,0l-0,18.746l18.748,-0l-0,-18.746l18.748,0l-0,37.492l-18.748,-0l-0,18.751l56.24,-0l0,-18.751l-18.744,-0l0,-37.492l18.744,0l0,18.746l18.748,-0l0,-18.746l18.748,0l0,37.492l-18.748,-0l0,18.751l18.748,-0l0,37.491l-18.748,0l0,-18.746l-37.492,0l0,18.746l18.744,0l0,18.751l-18.744,-0l0,18.746l37.492,-0l0,-18.746l18.748,-0l0,37.497l-18.748,-0l0,18.745l18.748,0l0,37.497l-18.748,0l0,-18.751l-18.748,0l0,18.751l-18.744,0l0,-37.497l18.744,0l0,-18.745l-37.492,-0l-0,18.745l-18.748,0l-0,-18.745l-37.496,-0l-0,18.745l18.748,0l-0,18.746l-18.748,0l-0,18.751l37.496,0l-0,-18.751l18.748,0l-0,56.243l-18.748,-0l-0,-18.746l-37.496,-0l-0,18.746l18.748,-0l-0,18.751l-18.748,-0l-0,18.745l37.496,0l-0,-18.745l18.748,-0l-0,18.745l37.492,0l0,-18.745l-18.744,-0l0,-37.497l18.744,-0l0,18.746l18.748,-0l0,-18.746l18.748,-0l0,37.497l-18.748,-0l0,18.745l18.748,0" style="fill:none;fill-rule:nonzero;stroke:#00f;stroke-width:0.58px;"/></svg>